# xmcd
#
# Track frame offsets: 
#        150
#        15642
#        31750
#        49690
#        67472
#        83832
#        105510
#        119917
#        135112
#        151392
#        166500
#
# Disc length: 2561 seconds
#
# Revision: 0
# Processed by: cddbd v1.5.1PL0 Copyright (c) Steve Scherf et al.
# Submitted via: ExactAudioCopy v0.95a5
#
DISCID=8409ff0b
DTITLE=Patty Loveless - On Your Way Home
DYEAR=2003
DGENRE=Country
TTITLE0=Draggin' My Heart Around
TTITLE1=Nothin' Like The Lonely
TTITLE2=I Wanna Believe
TTITLE3=On Your Way Home
TTITLE4=I Don't Wanna Be That Strong
TTITLE5=Born-Again Fool
TTITLE6=Looking For A Heartache Like You
TTITLE7=Higher Than The Wall
TTITLE8=Lovin' All Night
TTITLE9=Last In A Long Lonesome Line
TTITLE10=The Grandpa That I Know
EXTD=
EXTT0=
EXTT1=
EXTT2=
EXTT3=
EXTT4=
EXTT5=
EXTT6=
EXTT7=
EXTT8=
EXTT9=
EXTT10=
PLAYORDER=
